<?xml version="1.0" standalone="no"?>
<!DOCTYPE svg PUBLIC "-//W3C//DTD SVG 20010904//EN"
 "http://www.w3.org/TR/2001/REC-SVG-20010904/DTD/svg10.dtd">
<svg version="1.0" xmlns="http://www.w3.org/2000/svg"
 width="384.000000pt" height="384.000000pt" viewBox="0 0 384.000000 384.000000"
 preserveAspectRatio="xMidYMid meet">
<metadata>
Created by potrace 1.14, written by Peter Selinger 2001-2017
</metadata>
<g transform="translate(0.000000,384.000000) scale(0.100000,-0.100000)"
fill="#000000" stroke="none">
<path d="M1010 2890 c0 -5 -22 -10 -49 -10 -31 0 -53 -5 -61 -15 -7 -8 -21
-15 -32 -15 -11 0 -26 -6 -33 -12 -33 -30 -45 -38 -55 -38 -5 0 -10 -7 -10
-15 0 -8 -4 -15 -10 -15 -5 0 -12 -11 -16 -25 -3 -14 -10 -25 -15 -25 -5 0 -9
-38 -9 -85 0 -69 3 -85 15 -85 8 0 15 -6 15 -13 0 -7 9 -19 20 -27 11 -8 20
-20 20 -27 0 -7 7 -13 15 -13 8 0 15 -4 15 -10 0 -5 9 -10 20 -10 11 0 23 -7
26 -15 4 -8 17 -15 30 -15 13 0 24 -4 24 -10 0 -5 15 -10 33 -10 17 -1 43 -7
57 -15 14 -8 49 -14 78 -15 28 0 52 -4 52 -9 0 -6 20 -13 45 -17 25 -3 45 -10
45 -15 0 -5 11 -9 25 -9 20 0 25 -5 25 -25 0 -14 5 -25 10 -25 6 0 10 -7 10
-15 0 -8 7 -15 15 -15 8 0 15 7 15 15 0 8 7 15 15 15 8 0 37 23 65 50 28 28
55 50 60 50 17 0 75 63 62 68 -7 2 -12 10 -12 18 0 8 -5 14 -11 14 -6 0 -17 6
-24 13 -36 31 -45 37 -63 37 -11 0 -25 7 -32 15 -7 8 -28 15 -46 15 -19 0 -34
5 -34 10 0 6 -16 10 -35 10 -20 0 -52 7 -72 15 -19 8 -55 15 -79 15 -24 0 -44
4 -44 8 0 4 -15 12 -32 17 -27 8 -34 16 -36 43 -2 19 1 32 8 32 6 0 18 7 26
15 10 10 35 15 74 15 39 0 64 -5 74 -15 8 -8 17 -15 21 -15 11 0 30 -23 43
-54 l13 -29 131 6 c152 8 164 13 146 70 -6 20 -15 37 -20 37 -4 0 -8 8 -8 18
-1 21 -23 52 -39 52 -6 0 -11 7 -11 15 0 8 -9 15 -20 15 -11 0 -20 3 -20 8 0
10 -92 42 -124 42 -14 0 -26 5 -26 10 0 6 -52 10 -135 10 -83 0 -135 -4 -135
-10z"/>
<path d="M1690 2665 l0 -165 35 0 c19 0 35 5 35 10 0 6 14 10 30 10 17 0 47 7
67 15 19 8 51 15 69 15 19 0 34 5 34 10 0 6 13 10 30 10 46 0 112 32 104 50
-4 8 -11 41 -17 73 -5 31 -14 57 -18 57 -5 0 -9 11 -9 25 0 14 -4 25 -10 25
-5 0 -10 7 -10 15 0 13 -26 15 -170 15 l-170 0 0 -165z"/>
<path d="M2290 2815 c0 -8 -4 -15 -10 -15 -5 0 -10 -16 -10 -35 0 -20 -7 -49
-15 -65 -9 -18 -13 -40 -9 -55 7 -29 13 -30 40 -10 10 8 38 15 62 15 23 0 42
4 42 9 0 5 23 12 50 16 28 4 50 11 50 16 0 5 23 9 50 9 28 0 50 5 50 10 0 6 9
10 20 10 18 0 20 7 20 55 l0 55 -170 0 c-144 0 -170 -2 -170 -15z"/>
<path d="M2323 2573 c-40 -2 -73 -8 -73 -13 0 -6 -11 -10 -24 -10 -20 0 -24
-6 -30 -40 -3 -22 -11 -40 -16 -40 -6 0 -10 -11 -10 -25 0 -14 -4 -25 -10 -25
-5 0 -10 15 -10 33 -1 46 -20 67 -64 67 -20 0 -36 -4 -36 -10 0 -5 -16 -10
-35 -10 -19 0 -35 -4 -35 -10 0 -5 -11 -12 -25 -16 -18 -4 -25 -13 -25 -30 0
-13 5 -24 10 -24 6 0 10 -18 10 -39 0 -22 7 -46 15 -55 8 -8 15 -31 15 -50 0
-20 5 -36 10 -36 6 0 10 -16 10 -35 0 -19 4 -35 9 -35 5 0 12 -22 16 -50 4
-27 11 -50 16 -50 5 0 9 -12 9 -26 0 -47 20 -55 122 -52 l93 3 3 38 c2 20 7
37 11 37 5 0 11 12 14 28 14 64 32 122 39 122 5 0 8 15 8 33 0 17 7 41 15 51
8 11 15 30 15 43 0 13 5 23 10 23 6 0 10 18 10 40 0 29 4 40 15 40 13 0 15
-32 15 -230 l0 -230 105 0 105 0 0 289 0 288 -37 7 c-37 6 -128 5 -270 -1z"/>
<path d="M1867 2435 c-9 -8 -25 -15 -36 -15 -12 0 -21 -4 -21 -10 0 -5 -11
-10 -25 -10 -14 0 -25 -4 -25 -9 0 -5 -10 -13 -22 -17 -46 -14 -48 -23 -48
-208 l0 -176 105 0 104 0 6 33 c3 17 5 119 3 226 -3 199 -8 220 -41 186z"/>
<path d="M740 2311 c0 -6 -15 -11 -32 -13 -29 -3 -33 -6 -30 -28 1 -14 7 -26
12 -28 6 -2 10 -15 10 -28 0 -13 5 -24 10 -24 6 0 10 -11 10 -25 0 -14 5 -25
11 -25 11 0 39 -25 39 -35 0 -11 25 -32 48 -39 12 -4 22 -12 22 -17 0 -5 16
-9 35 -9 19 0 35 -4 35 -10 0 -6 32 -10 75 -10 43 0 75 4 75 10 0 6 5 10 10
10 12 0 27 11 79 61 21 19 46 39 57 44 14 6 0 11 -51 17 -38 5 -71 13 -73 18
-2 6 -12 10 -23 10 -10 0 -19 7 -19 15 0 8 -5 15 -11 15 -17 0 -39 27 -39 48
0 50 -5 52 -131 52 -67 0 -119 -4 -119 -9z"/>
<path d="M1533 2257 c-24 -24 -42 -37 -53 -37 -5 0 -10 -4 -10 -10 0 -5 -11
-12 -25 -16 -14 -3 -25 -10 -25 -14 0 -5 -8 -11 -17 -14 -10 -3 -36 -21 -58
-41 -22 -19 -44 -35 -48 -35 -12 0 -87 -77 -87 -90 0 -13 107 -13 115 0 3 5
28 12 55 16 28 4 50 10 50 15 0 5 7 9 15 9 34 0 125 100 125 137 0 13 5 23 10
23 6 0 10 16 10 35 0 30 -3 35 -22 35 -13 -1 -28 -6 -35 -13z"/>
<path d="M2460 1695 l0 -125 -65 0 c-63 0 -65 -1 -65 -25 0 -14 -4 -25 -10
-25 -5 0 -10 -9 -10 -20 0 -11 5 -20 10 -20 6 0 10 -7 10 -15 0 -12 14 -15 65
-15 l65 0 0 -121 c0 -140 5 -149 75 -149 77 0 75 -11 75 334 l0 306 -75 0 -75
0 0 -125z"/>
<path d="M2937 1800 c-12 -15 -17 -38 -17 -85 0 -36 -4 -65 -9 -65 -5 0 -12
-11 -15 -25 -4 -14 -11 -25 -16 -25 -6 0 -10 -7 -10 -15 0 -8 -5 -15 -11 -15
-14 0 -39 -25 -39 -39 0 -6 -7 -11 -15 -11 -8 0 -15 -4 -15 -10 0 -5 -11 -10
-25 -10 -16 0 -25 -6 -25 -15 0 -9 -9 -15 -25 -15 -14 0 -25 -3 -25 -6 0 -10
58 -64 69 -64 6 0 11 -4 11 -10 0 -17 42 -11 59 9 9 10 26 21 39 25 12 4 22
12 22 17 0 5 5 9 10 9 13 0 70 57 70 70 0 6 11 10 25 10 16 0 25 -6 25 -15 0
-8 5 -15 11 -15 7 0 22 -11 35 -25 13 -14 30 -25 39 -25 8 0 15 -4 15 -10 0
-5 11 -12 25 -16 14 -3 25 -10 25 -15 0 -20 41 -7 70 21 38 37 40 70 5 70 -14
0 -25 5 -25 10 0 6 -8 10 -19 10 -10 0 -27 11 -37 25 -10 14 -24 25 -31 25 -7
0 -13 5 -13 11 0 14 -25 39 -39 39 -6 0 -11 7 -11 15 0 8 -4 15 -10 15 -5 0
-10 11 -10 25 0 14 5 25 10 25 16 0 12 89 -4 106 -22 22 -98 18 -119 -6z"/>
<path d="M3300 1745 l0 -75 -75 0 -75 0 0 -50 0 -50 75 0 75 0 0 -85 0 -85 75
0 75 0 0 210 0 210 -75 0 -75 0 0 -75z"/>
<path d="M400 1780 c0 -5 -18 -10 -40 -10 -22 0 -40 -4 -40 -10 0 -5 -6 -10
-14 -10 -8 0 -30 -16 -50 -35 -36 -34 -36 -35 -36 -121 l0 -86 38 -38 c22 -21
49 -41 60 -44 12 -4 22 -12 22 -17 0 -5 7 -9 15 -9 8 0 15 -4 15 -9 0 -5 18
-11 40 -15 22 -3 40 -11 40 -16 0 -6 9 -10 21 -10 22 0 49 -22 49 -39 0 -6 7
-11 15 -11 11 0 15 -12 15 -50 0 -38 -4 -50 -15 -50 -8 0 -15 -4 -15 -8 0 -4
-13 -15 -29 -25 -36 -21 -114 -22 -135 -2 -8 8 -24 15 -35 15 -12 0 -21 5 -21
10 0 6 -7 10 -15 10 -8 0 -15 7 -15 15 0 8 -7 15 -15 15 -8 0 -15 5 -15 10 0
6 -9 10 -20 10 -18 0 -20 -7 -20 -60 0 -33 4 -60 10 -60 6 0 10 -5 10 -11 0
-17 27 -39 48 -39 11 0 22 -6 25 -12 5 -18 269 -18 275 0 2 6 10 12 18 12 8 0
14 4 14 8 0 5 11 15 25 22 14 7 25 19 25 26 0 6 7 14 15 18 9 3 15 19 15 41 0
19 5 35 10 35 6 0 10 16 10 35 0 19 -4 35 -10 35 -5 0 -10 11 -10 25 0 16 -6
25 -15 25 -8 0 -15 5 -15 11 0 14 -25 39 -39 39 -6 0 -11 7 -11 15 0 8 -7 15
-15 15 -8 0 -15 5 -15 10 0 6 -9 10 -20 10 -11 0 -20 5 -20 10 0 6 -11 10 -25
10 -14 0 -28 7 -31 15 -4 8 -17 15 -30 15 -13 0 -24 5 -24 10 0 6 -11 10 -25
10 -16 0 -25 6 -25 15 0 8 -4 15 -10 15 -5 0 -10 18 -10 40 0 22 5 40 10 40 6
0 10 9 10 20 0 18 7 20 86 20 80 0 89 -2 110 -25 13 -14 30 -25 39 -25 8 0 15
-4 15 -10 0 -5 7 -10 15 -10 12 0 15 13 15 56 0 48 -4 59 -29 85 -24 24 -38
29 -75 29 -25 0 -46 5 -46 10 0 6 -22 10 -50 10 -27 0 -50 -4 -50 -10z"/>
<path d="M2310 1780 c0 -6 -70 -10 -190 -10 l-190 0 0 -50 0 -50 141 0 140 0
-7 -22 c-3 -13 -11 -24 -15 -26 -5 -2 -9 -15 -9 -28 0 -13 -4 -24 -10 -24 -5
0 -10 -6 -10 -14 0 -16 -84 -106 -100 -106 -5 0 -10 -4 -10 -9 0 -5 -11 -12
-25 -15 -14 -4 -25 -11 -25 -16 0 -6 -11 -10 -25 -10 -14 0 -25 -4 -25 -10 0
-5 -16 -12 -35 -16 -25 -4 -35 -11 -35 -25 0 -11 5 -19 10 -19 6 0 10 -7 10
-15 0 -8 7 -15 15 -15 8 0 15 -4 15 -10 0 -5 16 -10 35 -10 19 0 35 5 35 10 0
6 11 10 25 10 14 0 25 4 25 9 0 5 11 12 25 15 14 4 25 11 25 16 0 6 7 10 15
10 8 0 15 4 15 9 0 5 10 13 21 16 25 8 79 60 79 76 0 5 11 20 25 33 14 13 25
33 25 45 0 12 6 21 15 21 9 0 15 9 15 25 0 14 5 25 10 25 6 0 10 15 10 33 0
18 7 42 15 53 20 26 20 84 0 84 -8 0 -15 5 -15 10 0 6 -4 10 -10 10 -5 0 -10
-4 -10 -10z"/>
<path d="M680 1720 l0 -50 115 0 115 0 0 -305 0 -305 60 0 60 0 0 293 c0 160
4 297 8 304 5 8 46 13 122 15 113 3 115 3 112 26 -3 17 2 22 17 22 16 0 21 -6
21 -25 0 -16 6 -25 15 -25 9 0 15 -9 15 -25 0 -16 6 -25 15 -25 8 0 15 -7 15
-15 0 -8 5 -15 10 -15 6 0 10 -9 10 -19 0 -10 7 -21 15 -25 8 -3 15 -15 15
-26 0 -11 5 -20 10 -20 6 0 10 -5 10 -10 0 -10 8 -22 38 -55 14 -16 16 -35 3
-35 -5 0 -12 -11 -15 -25 -4 -14 -11 -25 -16 -25 -6 0 -10 -5 -10 -11 0 -6 -6
-17 -13 -24 -29 -33 -37 -45 -37 -55 0 -5 -4 -10 -10 -10 -5 0 -12 -11 -16
-25 -3 -14 -10 -25 -15 -25 -5 0 -9 -5 -9 -10 0 -10 -8 -22 -37 -55 -7 -7 -13
-16 -13 -20 0 -4 -7 -13 -15 -21 -20 -20 -19 -34 3 -35 47 -4 127 4 130 12 2
5 9 15 15 22 7 7 21 29 31 50 11 20 23 37 28 37 4 0 8 11 8 25 0 16 6 25 15
25 8 0 15 7 15 15 0 8 5 15 10 15 6 0 10 9 10 20 0 37 40 16 54 -28 4 -12 12
-22 17 -22 5 0 9 -11 9 -25 0 -16 6 -25 15 -25 8 0 15 -7 15 -15 0 -8 5 -15
10 -15 6 0 10 -9 10 -19 0 -10 7 -21 15 -25 8 -3 15 -15 15 -26 0 -18 7 -20
60 -21 33 -1 66 -2 72 -3 24 -2 19 34 -6 57 -14 14 -26 32 -26 41 0 9 -7 19
-15 22 -8 4 -15 12 -15 20 0 8 -4 14 -10 14 -5 0 -10 9 -10 20 0 11 -7 20 -15
20 -9 0 -15 9 -15 21 0 12 -11 32 -25 45 -14 13 -25 30 -25 39 0 8 -4 15 -10
15 -5 0 -10 7 -10 15 0 8 -7 15 -15 15 -8 0 -15 5 -15 10 0 6 4 10 9 10 5 0
12 11 15 25 4 14 11 25 16 25 6 0 10 7 10 15 0 8 4 15 9 15 5 0 13 10 17 22 3
12 17 33 30 47 13 14 24 31 24 38 0 7 4 13 9 13 5 0 12 11 15 25 4 14 11 25
16 25 6 0 10 5 10 10 0 10 8 22 38 55 25 28 13 35 -62 35 -70 0 -74 -1 -80
-25 -4 -14 -11 -25 -16 -25 -6 0 -10 -7 -10 -15 0 -8 -4 -15 -10 -15 -5 0 -10
-9 -10 -20 0 -11 -7 -23 -15 -26 -8 -4 -15 -14 -15 -24 0 -10 -7 -20 -15 -24
-8 -3 -15 -15 -15 -26 0 -11 -4 -20 -10 -20 -5 0 -10 -7 -10 -16 0 -23 -24
-11 -28 14 -2 12 -8 22 -13 22 -5 0 -9 7 -9 15 0 8 -4 15 -9 15 -5 0 -13 10
-17 22 -6 20 -13 31 -41 63 -7 7 -13 21 -13 29 0 9 -8 25 -17 36 -17 19 -29
20 -380 20 l-363 0 0 -50z"/>
<path d="M2870 1316 c0 -42 4 -55 17 -60 10 -4 107 -6 217 -5 140 1 201 -2
204 -10 3 -8 -59 -11 -217 -11 l-221 0 0 -125 0 -125 290 0 290 0 0 50 0 50
-231 0 c-207 0 -230 2 -225 16 3 9 6 20 6 25 0 5 95 9 225 9 l225 0 0 106 c0
78 -4 109 -14 120 -12 11 -65 14 -290 14 l-276 0 0 -54z"/>
<path d="M2030 1115 l0 -135 290 0 290 0 0 60 0 60 -209 0 c-115 0 -216 3
-225 6 -12 5 -16 21 -16 75 l0 69 -65 0 -65 0 0 -135z"/>
</g>
</svg>
